<?xml version="1.0" standalone="no"?>
<!DOCTYPE svg PUBLIC "-//W3C//DTD SVG 20010904//EN"
 "http://www.w3.org/TR/2001/REC-SVG-20010904/DTD/svg10.dtd">
<svg version="1.0"
 width="32.000000pt" height="32.000000pt" viewBox="0 0 32.000000 32.000000"
 preserveAspectRatio="xMidYMid meet">
<g transform="translate(0.000000,32.000000) scale(0.100000,-0.100000)"
fill="#000000" stroke="none">
<path d="M103 300 c-4 -14 -14 -20 -34 -20 -32 0 -49 -24 -30 -43 7 -7 11 -50
11 -112 0 -65 4 -105 12 -113 16 -16 180 -16 196 0 8 8 12 48 12 113 0 62 4
105 11 112 19 19 2 43 -31 43 -19 0 -30 5 -30 14 0 18 -22 26 -72 26 -31 0
-41 -4 -45 -20z m91 4 c32 -12 15 -24 -34 -24 -27 0 -50 4 -50 9 0 18 53 27
84 15z m74 -51 c3 -10 -23 -13 -107 -13 -102 0 -123 5 -104 24 13 12 206 2
211 -11z m-18 -133 l0 -100 -90 0 -90 0 0 100 0 100 90 0 90 0 0 -100z"/>
<path d="M110 125 c0 -43 3 -75 7 -72 7 7 4 139 -3 146 -2 2 -4 -31 -4 -74z"/>
<path d="M150 125 c0 -43 4 -75 10 -75 6 0 10 32 10 75 0 43 -4 75 -10 75 -6
0 -10 -32 -10 -75z"/>
<path d="M200 198 c-5 -24 -2 -140 3 -145 4 -3 7 28 7 70 0 43 -2 77 -5 77 -3
0 -5 -1 -5 -2z"/>
</g>
</svg>
